<mxfile host="app.diagrams.net" modified="2024-07-11T01:01:35.233Z" agent="Mozilla/5.0 (Windows NT 10.0; Win64; x64) AppleWebKit/537.36 (KHTML, like Gecko) Chrome/116.0.0.0 Safari/537.36" version="24.6.4" etag="4WJ_PZz7M3cWa4LkhOAB" type="github">
  <diagram name="第 1 页" id="zHnhVxsxkDLs3oavXhRQ">
    <mxGraphModel>
      <root>
        <mxCell id="0" />
        <mxCell id="1" parent="0" />
      </root>
    </mxGraphModel>
  </diagram>
</mxfile>
